<svg xmlns="http://www.w3.org/2000/svg" viewBox="0 0 1122.52 793.701">
  <defs>
    <clipPath id="a" clipPathUnits="userSpaceOnUse">
      <path d="M0 595.276h841.89V0H0Z"/>
    </clipPath>
  </defs>
  <path fill="none" stroke="#419ed4" stroke-miterlimit="10" stroke-width="3.9999899999999995" d="M231.12 547.232h651.905"/>
  <path fill="#fff" d="M689.71 565.33H424.436v-33.345H689.71z"/>
  <g clip-path="url(#a)" transform="matrix(1.33333 0 0 -1.33333 0 793.701)">
    <path fill="#1c244d" d="M335.239 182.879h3.14c.014-1.09.453-1.174 1.358-1.174h3.848c.664 0 1.343.07 1.343.862 0 .892-.368.949-4.413.949-4.724 0-5.262.565-5.262 3.083 0 1.853.17 3.282 4.131 3.282h4.384c3.621 0 3.961-1.231 3.961-3.027v-.326h-3.14c0 .749-.085 1.06-1.528 1.06h-3.48c-.707 0-1.188-.24-1.188-.791 0-.892.382-.92 3.749-.905 4.88.013 6.012-.284 6.012-3.268 0-2.758-.934-3.211-5.107-3.211h-3.805c-2.857 0-4.003.538-4.003 2.759ZM351.35 189.767h3.14v-5.913c0-1.3.467-1.81 1.754-1.81h3.112c1.287 0 1.754.51 1.754 1.81v5.913h3.14v-6.592c0-2.546-1.316-3.762-4.2-3.762h-4.499c-2.886 0-4.2 1.216-4.2 3.762ZM370.772 184.731h5.19c.85 0 1.16.34 1.16 1.075v.34c0 .905-.452 1.075-1.442 1.075h-4.908Zm-3.14 5.036h9.477c2.418 0 3.069-1.202 3.069-3.04v-.652c0-1.372-.311-2.178-1.754-2.518v-.028c.934-.17 1.712-.58 1.712-2.263v-1.74h-3.14v1.23c0 1.076-.311 1.43-1.287 1.43h-4.937v-2.66h-3.14zM383.529 189.767h10.693v-2.462h-7.553v-1.909h7.2v-2.376h-7.2v-3.494h-3.14ZM404.943 189.767h3.437l4.003-7.61 4.003 7.61h3.437l-5.502-10.24h-3.876ZM422.71 189.767h3.14v-10.241h-3.14zM429.316 189.767h3.14v-7.61h7.058v-2.63h-10.198ZM442.401 189.767h3.14v-7.61h7.058v-2.63h-10.198ZM460.587 183.544h4.018l-2.038 3.847Zm-.056 6.224h4.088l5.63-10.242h-3.495l-.976 1.81h-6.365l-.919-1.81h-3.508zM472.386 186.174c0 2.998 1.683 3.706 4.512 3.706h4.725c3.564 0 4.059-1.288 4.059-3.282v-.325h-3.083c0 1.018-.58 1.145-1.585 1.145h-3.408c-1.585 0-1.995-.382-1.995-2.136v-1.272c0-1.754.41-2.136 1.995-2.136h3.352c.82 0 1.641.128 1.641 1.118v.297h-3.904v2.122h7.044v-2.914c0-2.942-1.528-3.084-5.064-3.084h-3.777c-2.829 0-4.512.706-4.512 3.705ZM488.984 189.767h11.203v-2.377h-8.063v-1.64h7.638v-2.123h-7.638v-1.64h8.246v-2.46h-11.386ZM173.34 220.79h10.283v-3.047c0-2.571 1.333-3.618 4.618-3.618h4.19c3.474 0 5.522.429 5.522 3.618v22.66h10.57v-23.517c0-9.474-5.19-11.33-14.76-11.33h-6.902c-9.903 0-13.52 3.046-13.52 11.092ZM237.307 214.22h18.947c2.285 0 3.809.523 3.809 2.522 0 2.333-1.524 2.857-3.81 2.857h-18.946Zm0 12.52h18.709c1.952 0 3.095.714 3.095 2.667 0 2-1.143 2.713-3.095 2.713h-18.71Zm-10.57 13.664h30.422c8.426 0 12.52-2.286 12.52-9.046 0-5.904-2.142-7.046-5.093-7.903v-.142c4.617-.572 6.33-3.047 6.33-8.237 0-7.569-4.473-9.14-10.52-9.14h-33.658zM297.788 219.457h13.521l-6.856 12.949Zm-.19 20.947h13.758l18.948-34.468h-11.759l-3.285 6.094h-21.423l-3.095-6.094h-11.807zM347.11 217.933l-19.09 22.471h12.758l11.616-14.092 11.616 14.092h12.76l-19.09-22.47v-11.998h-10.57ZM421.291 223.17h16.424c2.476 0 3.428 1.619 3.428 3.666v1.333c0 2.333-1.143 3.666-4.332 3.666h-15.52Zm-10.569 17.234h28.802c10.045 0 12.474-5.046 12.474-11.806v-2.951c0-5.143-2.238-11.045-9.713-11.045h-20.994v-8.665h-10.569zM477.588 219.457h13.521l-6.856 12.949Zm-.19 20.947h13.758l18.948-34.468h-11.759l-3.285 6.094h-21.423l-3.095-6.094h-11.807zM527.853 214.79h18.757c4.523 0 6.284 1.287 6.284 6.19v4.666c0 4.904-1.761 6.189-6.284 6.189h-18.757Zm-10.57 25.614h31.898c10.568 0 14.282-3.475 14.282-11.997v-10.473c0-8.522-3.714-11.997-14.282-11.997h-31.897zM576.664 240.404h37.705v-7.998h-27.136v-5.523h25.708v-7.141h-25.708v-5.522h27.755v-8.284h-38.324zM627.943 240.404h10.57v-25.613h23.755v-8.855h-34.325ZM219.153 219.626h-3.049a2.872 2.872 0 0 0-2.872 2.872v1.396a2.872 2.872 0 0 0 2.872 2.873h3.049a2.872 2.872 0 0 0 2.872-2.873v-1.396a2.872 2.872 0 0 0-2.872-2.872"/>
    <path fill="#419ed4" d="M280.82 262.166a.635.635 0 0 0-.577.84c4.388 12.808 61.935 174.129 179.565 181.637 122.498 7.819 174.02-123.554 120.701-182.443-4.489-4.958-12.442-2.784-2.208 14.68 17.173 29.302 11.772 93.12-31.189 121.764-41.612 27.745-92.972 36.298-151.805-9.108-46.97-36.25-75.902-114.157-78.33-121.443l-.99-2.971a6.052 6.052 0 0 0-5.985-4.134Z"/>
    <path fill="#419ed4" d="M510.697 384.096c0-7.018-5.69-12.707-12.707-12.707s-12.706 5.689-12.706 12.707c0 7.018 5.689 12.707 12.706 12.707 7.018 0 12.707-5.69 12.707-12.707"/>
    <path fill="none" stroke="#419ed4" stroke-miterlimit="10" stroke-width="3" d="M510.697 384.096c0-7.018-5.69-12.707-12.707-12.707s-12.706 5.689-12.706 12.707c0 7.018 5.689 12.707 12.706 12.707 7.018 0 12.707-5.69 12.707-12.707Z"/>
    <path fill="#419ed4" d="M531.666 358.683c0-7.018-5.689-12.707-12.707-12.707-7.017 0-12.706 5.689-12.706 12.707 0 7.018 5.69 12.707 12.706 12.707 7.018 0 12.707-5.69 12.707-12.707"/>
    <path fill="none" stroke="#419ed4" stroke-miterlimit="10" stroke-width="3" d="M531.666 358.683c0-7.018-5.689-12.707-12.707-12.707-7.017 0-12.706 5.689-12.706 12.707 0 7.018 5.69 12.707 12.706 12.707 7.018 0 12.707-5.69 12.707-12.707Z"/>
    <path fill="#419ed4" d="M553.615 334.73c0-7.017-5.69-12.706-12.707-12.706s-12.706 5.689-12.706 12.707c0 7.018 5.689 12.707 12.706 12.707 7.018 0 12.707-5.69 12.707-12.707"/>
    <path fill="none" stroke="#419ed4" stroke-miterlimit="10" stroke-width="3" d="M553.615 334.73c0-7.017-5.69-12.706-12.707-12.706s-12.706 5.689-12.706 12.707c0 7.018 5.689 12.707 12.706 12.707 7.018 0 12.707-5.69 12.707-12.707Z"/>
    <path fill="#419ed4" d="M480.733 357.944c0-6.036-4.893-10.93-10.93-10.93-6.036 0-10.93 4.894-10.93 10.93s4.894 10.93 10.93 10.93c6.037 0 10.93-4.894 10.93-10.93"/>
    <path fill="none" stroke="#419ed4" stroke-miterlimit="10" stroke-width="3" d="M480.733 357.944c0-6.036-4.893-10.93-10.93-10.93-6.036 0-10.93 4.894-10.93 10.93s4.894 10.93 10.93 10.93c6.037 0 10.93-4.894 10.93-10.93Z"/>
    <path fill="#419ed4" d="M458.873 382.32c0-6.037-4.893-10.93-10.93-10.93-6.036 0-10.93 4.893-10.93 10.93 0 6.035 4.894 10.93 10.93 10.93 6.037 0 10.93-4.895 10.93-10.93"/>
    <path fill="none" stroke="#419ed4" stroke-miterlimit="10" stroke-width="3" d="M458.873 382.32c0-6.037-4.893-10.93-10.93-10.93-6.036 0-10.93 4.893-10.93 10.93 0 6.035 4.894 10.93 10.93 10.93 6.037 0 10.93-4.895 10.93-10.93Z"/>
    <path fill="#419ed4" d="M504.545 333.372c0-6.036-4.893-10.93-10.93-10.93-6.036 0-10.93 4.894-10.93 10.93s4.894 10.93 10.93 10.93c6.037 0 10.93-4.894 10.93-10.93"/>
    <path fill="none" stroke="#419ed4" stroke-miterlimit="10" stroke-width="3" d="M504.545 333.372c0-6.036-4.893-10.93-10.93-10.93-6.036 0-10.93 4.894-10.93 10.93s4.894 10.93 10.93 10.93c6.037 0 10.93-4.894 10.93-10.93Z"/>
    <path fill="#419ed4" d="M524.646 311.512c0-6.036-4.893-10.93-10.93-10.93-6.036 0-10.93 4.894-10.93 10.93s4.894 10.93 10.93 10.93c6.037 0 10.93-4.894 10.93-10.93"/>
    <path fill="none" stroke="#419ed4" stroke-miterlimit="10" stroke-width="3" d="M524.646 311.512c0-6.036-4.893-10.93-10.93-10.93-6.036 0-10.93 4.894-10.93 10.93s4.894 10.93 10.93 10.93c6.037 0 10.93-4.894 10.93-10.93Z"/>
    <path fill="#419ed4" d="M499.076 289.652a8.892 8.892 0 1 0-17.784 0 8.892 8.892 0 1 0 17.784 0"/>
    <path fill="none" stroke="#419ed4" stroke-miterlimit="10" stroke-width="3" d="M499.076 289.652a8.892 8.892 0 1 0-17.784 0 8.892 8.892 0 1 0 17.784 0Z"/>
    <path fill="#419ed4" d="M519.589 265.216a8.892 8.892 0 1 0-17.784 0 8.892 8.892 0 1 0 17.784 0"/>
    <path fill="none" stroke="#419ed4" stroke-miterlimit="10" stroke-width="3" d="M519.589 265.216a8.892 8.892 0 1 0-17.784 0 8.892 8.892 0 1 0 17.784 0Z"/>
    <path fill="#419ed4" d="M476.657 313.132a8.892 8.892 0 1 0-17.784 0 8.892 8.892 0 1 0 17.784 0"/>
    <path fill="none" stroke="#419ed4" stroke-miterlimit="10" stroke-width="3" d="M476.657 313.132a8.892 8.892 0 1 0-17.784 0 8.892 8.892 0 1 0 17.784 0Z"/>
    <path fill="#419ed4" d="M454.798 337.084a8.892 8.892 0 1 0-17.784 0 8.892 8.892 0 1 0 17.784 0"/>
    <path fill="none" stroke="#419ed4" stroke-miterlimit="10" stroke-width="3" d="M454.798 337.084a8.892 8.892 0 1 0-17.784 0 8.892 8.892 0 1 0 17.784 0Z"/>
    <path fill="#419ed4" d="M431.901 361.322a8.892 8.892 0 1 0-17.784 0 8.892 8.892 0 1 0 17.784 0"/>
    <path fill="none" stroke="#419ed4" stroke-miterlimit="10" stroke-width="3" d="M431.901 361.322a8.892 8.892 0 1 0-17.784 0 8.892 8.892 0 1 0 17.784 0Z"/>
    <path fill="#419ed4" d="M410.375 343.538a6.961 6.961 0 0 0-6.962-6.961 6.96 6.96 0 1 0 0 13.922 6.961 6.961 0 0 0 6.962-6.961"/>
    <path fill="none" stroke="#419ed4" stroke-miterlimit="10" stroke-width="3" d="M410.375 343.538a6.961 6.961 0 0 0-6.962-6.961 6.96 6.96 0 1 0 0 13.922 6.961 6.961 0 0 0 6.962-6.961Z"/>
    <path fill="#419ed4" d="M431.901 318.473a6.962 6.962 0 1 0-13.924 0 6.962 6.962 0 0 0 13.925 0"/>
    <path fill="none" stroke="#419ed4" stroke-miterlimit="10" stroke-width="3" d="M431.901 318.473a6.962 6.962 0 1 0-13.924 0 6.962 6.962 0 0 0 13.925 0Z"/>
    <path fill="#419ed4" d="M454.904 294.77a6.96 6.96 0 0 0-6.96-6.962 6.961 6.961 0 1 0 0 13.923 6.962 6.962 0 0 0 6.96-6.962"/>
    <path fill="none" stroke="#419ed4" stroke-miterlimit="10" stroke-width="3" d="M454.904 294.77a6.96 6.96 0 0 0-6.96-6.962 6.961 6.961 0 1 0 0 13.923 6.962 6.962 0 0 0 6.96-6.962Z"/>
    <path fill="#419ed4" d="M474.726 271.155a6.962 6.962 0 1 0-13.924 0 6.962 6.962 0 0 0 13.924 0"/>
    <path fill="none" stroke="#419ed4" stroke-miterlimit="10" stroke-width="3" d="M474.726 271.155a6.962 6.962 0 1 0-13.924 0 6.962 6.962 0 0 0 13.924 0Z"/>
    <path fill="#419ed4" d="M544.98 286.353c0-6.036-4.892-10.93-10.93-10.93-6.035 0-10.93 4.894-10.93 10.93s4.895 10.93 10.93 10.93c6.038 0 10.93-4.894 10.93-10.93"/>
    <path fill="none" stroke="#419ed4" stroke-miterlimit="10" stroke-width="3" d="M544.98 286.353c0-6.036-4.892-10.93-10.93-10.93-6.035 0-10.93 4.894-10.93 10.93s4.895 10.93 10.93 10.93c6.038 0 10.93-4.894 10.93-10.93Z"/>
    <path fill="#fff" d="M304.349 384.529s86.293 13.603 105.21-29.444c22.342-50.845-41.1-76.97-71.074-65.433-54.312 20.903-101.612 3.094-101.612 3.094 67.239 25.743 106.009 24.388 124.614 18.65l-1.155 55.533Z"/>
    <path fill="#419ed4" d="M285.237 382.527s71.469 11.445 71.469-15.598M234.169 291.756s102.756 40.241 140.494 5.254c-28.467-10.057-77.188 11.658-140.494-5.254"/>
    <path fill="#fff" d="M243.224 346.514s34.318 7.084 71.045 7.359c52.647.394 30.974-30.91 30.974-30.91s-27.804 24.92-102.02 23.55"/>
    <path fill="#419ed4" d="M241.32 346.153s83.841 16.67 102.302-4.594c0 0 14.14-15.9-42.865-1.059-18.492 4.815-57.767 2.643-59.437 5.653"/>
    <path fill="#fff" fill-rule="evenodd" d="M355.657 302.772c-19.276 8.61-27.952 31.297-19.342 50.573 8.61 19.275 31.297 27.952 50.573 19.342 19.275-8.61 27.952-31.297 19.342-50.573-8.61-19.276-31.297-27.952-50.573-19.342"/>
    <path fill="#1c244d" d="M387.35 373.72c-19.846 8.865-43.203-.068-52.068-19.914-8.865-19.846.068-43.203 19.914-52.068 19.845-8.865 43.203.068 52.068 19.914 8.865 19.845-.07 43.203-19.914 52.068m-.924-2.068c18.736-8.369 27.139-30.34 18.77-49.077-8.37-18.735-30.341-27.138-49.077-18.769-18.735 8.37-27.14 30.341-18.77 49.076 8.37 18.736 30.342 27.14 49.077 18.77"/>
    <path fill="none" stroke="#1c244d" stroke-miterlimit="10" stroke-width="3" d="M387.35 373.72c-19.846 8.865-43.203-.068-52.068-19.914-8.865-19.846.068-43.203 19.914-52.068 19.845-8.865 43.203.068 52.068 19.914 8.865 19.845-.07 43.203-19.914 52.068Zm-.924-2.068c18.736-8.369 27.139-30.34 18.77-49.077-8.37-18.735-30.341-27.138-49.077-18.769-18.735 8.37-27.14 30.341-18.77 49.076 8.37 18.736 30.342 27.14 49.077 18.77"/>
    <path fill="#1c244d" d="M396.87 364.68c2.73-5.3 3.07-11.73.46-17.574-4.457-9.977-16.206-14.484-26.748-10.26-1.19.485-3.652 1.49-6.062 1.544-8.009.196-14.864-3.895-17.893-10.675-4.072-9.116.031-19.844 9.147-23.916 18.778-8.388 40.88.064 49.267 18.843 6.56 14.683 2.871 31.418-8.17 42.037m-41.983-62.864c-10.209 4.56-14.805 16.577-10.245 26.786 3.342 7.48 11.164 12.175 19.93 11.961 2.807-.063 5.52-1.17 6.824-1.703 9.447-3.785 19.97.226 23.95 9.133 3.806 8.522.588 18.443-7.484 23.076l1.034 1.91c18.736-9.535 26.7-32.035 18.128-51.222-8.876-19.872-32.266-28.817-52.137-19.94"/>
    <path fill="none" stroke="#1c244d" stroke-miterlimit="10" stroke-width="3" d="M396.87 364.68c2.73-5.3 3.07-11.73.46-17.574-4.457-9.977-16.206-14.484-26.748-10.26-1.19.485-3.652 1.49-6.062 1.544-8.009.196-14.864-3.895-17.893-10.675-4.072-9.116.031-19.844 9.147-23.916 18.778-8.388 40.88.064 49.267 18.843 6.56 14.683 2.871 31.418-8.17 42.037Zm-41.982-62.865c-10.209 4.56-14.805 16.577-10.245 26.786 3.342 7.48 11.164 12.175 19.93 11.961 2.807-.063 5.52-1.17 6.824-1.703 9.447-3.785 19.97.226 23.95 9.133 3.806 8.522.588 18.443-7.484 23.076l1.034 1.91c18.736-9.535 26.7-32.035 18.128-51.222-8.876-19.872-32.266-28.817-52.137-19.94Z"/>
  </g>
</svg>